<svg width="512" height="512" viewBox="0 0 512 512" fill="none" xmlns="http://www.w3.org/2000/svg">
  <rect width="512" height="512" rx="80" fill="#000000"/>
  
  <!-- Gradiente para la E -->
  <defs>
    <linearGradient id="gradientE" x1="0%" y1="0%" x2="100%" y2="100%">
      <stop offset="0%" style="stop-color:#8B5CF6;stop-opacity:1" />
      <stop offset="25%" style="stop-color:#3B82F6;stop-opacity:1" />
      <stop offset="50%" style="stop-color:#10B981;stop-opacity:1" />
      <stop offset="75%" style="stop-color:#F59E0B;stop-opacity:1" />
      <stop offset="100%" style="stop-color:#EF4444;stop-opacity:1" />
    </linearGradient>
    
    <!-- Gradiente para la R -->
    <linearGradient id="gradientR" x1="0%" y1="0%" x2="100%" y2="100%">
      <stop offset="0%" style="stop-color:#10B981;stop-opacity:1" />
      <stop offset="25%" style="stop-color:#F59E0B;stop-opacity:1" />
      <stop offset="50%" style="stop-color:#F97316;stop-opacity:1" />
      <stop offset="75%" style="stop-color:#EF4444;stop-opacity:1" />
      <stop offset="100%" style="stop-color:#DC2626;stop-opacity:1" />
    </linearGradient>
  </defs>
  
  <!-- Letra E -->
  <path d="M80 120 L80 392 L280 392 L280 340 L140 340 L140 280 L260 280 L260 232 L140 232 L140 172 L280 172 L280 120 Z" 
        fill="url(#gradientE)" 
        stroke="none"/>
  
  <!-- Letra R -->
  <path d="M320 120 L320 392 L380 392 L380 280 L420 280 L460 392 L520 392 L470 270 
           C 490 260 500 240 500 210 
           C 500 160 470 120 420 120 Z
           M380 172 L420 172 
           C 440 172 450 182 450 200 
           C 450 218 440 228 420 228 
           L380 228 Z" 
        fill="url(#gradientR)" 
        stroke="none"/>
</svg>